{
  "accessors": [
    {
      "bufferView": 2,
      "componentType": 5126,
      "count": 252,
      "max": [
        70.01249694824219,
        18.317899703979492,
        27.3572998046875
      ],
      "min": [
        -61.845401763916016,
        -113.4447021484375,
        11.097000122070313
      ],
      "type": "VEC3"
    },
    {
      "bufferView": 2,
      "byteOffset": 3024,
      "componentType": 5126,
      "count": 252,
      "max": [
        0.9997857213020325,
        1.0,
        0.9997857213020325
      ],
      "min": [
        -0.9997857213020325,
        -1.0,
        -0.9997857213020325
      ],
      "type": "VEC3"
    },
    {
      "bufferView": 1,
      "componentType": 5126,
      "count": 252,
      "max": [
        0.6563000082969666,
        1.0
      ],
      "min": [
        0.34369999170303345,
        -0.0
      ],
      "type": "VEC2"
    },
    {
      "bufferView": 0,
      "componentType": 5125,
      "count": 720,
      "type": "SCALAR"
    },
    {
      "bufferView": 2,
      "byteOffset": 6048,
      "componentType": 5126,
      "count": 6290,
      "max": [
        62.60390090942383,
        -3.8422999382019043,
        136.6201934814453
      ],
      "min": [
        -59.907501220703125,
        -93.29630279541016,
        24.807300567626953
      ],
      "type": "VEC3"
    },
    {
      "bufferView": 2,
      "byteOffset": 81528,
      "componentType": 5126,
      "count": 6290,
      "max": [
        0.9997945427894592,
        0.9999823570251465,
        0.9999994039535522
      ],
      "min": [
        -0.9996996521949768,
        -0.9997710585594177,
        -0.9995113015174866
      ],
      "type": "VEC3"
    },
    {
      "bufferView": 1,
      "byteOffset": 2016,
      "componentType": 5126,
      "count": 6290,
      "max": [
        0.9951000213623047,
        -0.008700000122189522
      ],
      "min": [
        0.004999999888241291,
        -0.9818999767303467
      ],
      "type": "VEC2"
    },
    {
      "bufferView": 0,
      "byteOffset": 2880,
      "componentType": 5125,
      "count": 29022,
      "type": "SCALAR"
    },
    {
      "bufferView": 2,
      "byteOffset": 157008,
      "componentType": 5126,
      "count": 4421,
      "max": [
        11.261099815368652,
        7.154200077056885,
        157.58839416503906
      ],
      "min": [
        -9.632399559020996,
        -21.64539909362793,
        123.50550079345703
      ],
      "type": "VEC3"
    },
    {
      "bufferView": 2,
      "byteOffset": 210060,
      "componentType": 5126,
      "count": 4421,
      "max": [
        0.9999020099639893,
        0.9985715746879578,
        0.9997267127037048
      ],
      "min": [
        -0.9998819828033447,
        -0.9998502731323242,
        -0.9991475343704224
      ],
      "type": "VEC3"
    },
    {
      "bufferView": 1,
      "byteOffset": 52336,
      "componentType": 5126,
      "count": 4421,
      "max": [
        0.9976000189781189,
        -0.006599999964237213
      ],
      "min": [
        0.002899999963119626,
        -0.9940999746322632
      ],
      "type": "VEC2"
    },
    {
      "bufferView": 0,
      "byteOffset": 118968,
      "componentType": 5125,
      "count": 20868,
      "type": "SCALAR"
    },
    {
      "bufferView": 2,
      "byteOffset": 263112,
      "componentType": 5126,
      "count": 230,
      "max": [
        7.25600004196167,
        -13.400400161743164,
        148.03700256347656
      ],
      "min": [
        -2.0350000858306885,
        -17.59309959411621,
        143.3459014892578
      ],
      "type": "VEC3"
    },
    {
      "bufferView": 2,
      "byteOffset": 265872,
      "componentType": 5126,
      "count": 230,
      "max": [
        0.9815406203269958,
        0.6238898634910583,
        0.9873064756393433
      ],
      "min": [
        -0.9973351955413818,
        -0.9980775117874146,
        -0.9612434506416321
      ],
      "type": "VEC3"
    },
    {
      "bufferView": 1,
      "byteOffset": 87704,
      "componentType": 5126,
      "count": 230,
      "max": [
        0.795199990272522,
        0.9405999779701233
      ],
      "min": [
        0.10779999941587448,
        0.2371000051498413
      ],
      "type": "VEC2"
    },
    {
      "bufferView": 0,
      "byteOffset": 202440,
      "componentType": 5125,
      "count": 1140,
      "type": "SCALAR"
    }
  ],
  "asset": {
    "extras": {
      "author": "Orly0033 (https://sketchfab.com/Orly0033)",
      "license": "CC-BY-4.0 (http://creativecommons.org/licenses/by/4.0/)",
      "source": "https://sketchfab.com/3d-models/dio-brando-9324f89412c5430bb79ba51f21df6546",
      "title": "Dio Brando"
    },
    "generator": "Sketchfab-12.66.0",
    "version": "2.0"
  },
  "bufferViews": [
    {
      "buffer": 0,
      "byteLength": 207000,
      "name": "floatBufferViews",
      "target": 34963
    },
    {
      "buffer": 0,
      "byteLength": 89544,
      "byteOffset": 207000,
      "byteStride": 8,
      "name": "floatBufferViews",
      "target": 34962
    },
    {
      "buffer": 0,
      "byteLength": 268632,
      "byteOffset": 296544,
      "byteStride": 12,
      "name": "floatBufferViews",
      "target": 34962
    }
  ],
  "buffers": [
    {
      "byteLength": 565176,
      "uri": "scene.bin"
    }
  ],
  "images": [
    {
      "uri": "textures/lambert1_baseColor.png"
    },
    {
      "uri": "textures/lambert1_emissive.png"
    },
    {
      "uri": "textures/lambert2_baseColor.png"
    }
  ],
  "materials": [
    {
      "doubleSided": true,
      "name": "blinn1",
      "pbrMetallicRoughness": {
        "baseColorFactor": [
          0.0,
          0.0,
          0.0,
          1.0
        ],
        "metallicFactor": 0.0,
        "roughnessFactor": 0.8870949567823387
      }
    },
    {
      "alphaMode": "BLEND",
      "doubleSided": true,
      "emissiveTexture": {
        "index": 1
      },
      "name": "lambert1",
      "pbrMetallicRoughness": {
        "baseColorTexture": {
          "index": 0
        },
        "metallicFactor": 0.0
      }
    },
    {
      "doubleSided": true,
      "emissiveTexture": {
        "index": 2
      },
      "name": "lambert2",
      "pbrMetallicRoughness": {
        "baseColorTexture": {
          "index": 2
        },
        "metallicFactor": 0.0
      }
    }
  ],
  "meshes": [
    {
      "name": "Object_0",
      "primitives": [
        {
          "attributes": {
            "NORMAL": 1,
            "POSITION": 0,
            "TEXCOORD_0": 2
          },
          "indices": 3,
          "material": 0,
          "mode": 4
        }
      ]
    },
    {
      "name": "Object_1",
      "primitives": [
        {
          "attributes": {
            "NORMAL": 5,
            "POSITION": 4,
            "TEXCOORD_0": 6
          },
          "indices": 7,
          "material": 1,
          "mode": 4
        }
      ]
    },
    {
      "name": "Object_2",
      "primitives": [
        {
          "attributes": {
            "NORMAL": 9,
            "POSITION": 8,
            "TEXCOORD_0": 10
          },
          "indices": 11,
          "material": 1,
          "mode": 4
        }
      ]
    },
    {
      "name": "Object_3",
      "primitives": [
        {
          "attributes": {
            "NORMAL": 13,
            "POSITION": 12,
            "TEXCOORD_0": 14
          },
          "indices": 15,
          "material": 2,
          "mode": 4
        }
      ]
    }
  ],
  "nodes": [
    {
      "children": [
        1
      ],
      "matrix": [
        1.0,
        0.0,
        0.0,
        0.0,
        0.0,
        2.220446049250313e-16,
        -1.0,
        0.0,
        0.0,
        1.0,
        2.220446049250313e-16,
        0.0,
        0.0,
        0.0,
        0.0,
        1.0
      ],
      "name": "Sketchfab_model"
    },
    {
      "children": [
        2,
        3,
        4,
        5
      ],
      "name": "wry.obj.cleaner.materialmerger.gles"
    },
    {
      "mesh": 0,
      "name": "Object_2"
    },
    {
      "mesh": 1,
      "name": "Object_3"
    },
    {
      "mesh": 2,
      "name": "Object_4"
    },
    {
      "mesh": 3,
      "name": "Object_5"
    }
  ],
  "samplers": [
    {
      "magFilter": 9729,
      "minFilter": 9987,
      "wrapS": 10497,
      "wrapT": 10497
    }
  ],
  "scene": 0,
  "scenes": [
    {
      "name": "Sketchfab_Scene",
      "nodes": [
        0
      ]
    }
  ],
  "textures": [
    {
      "sampler": 0,
      "source": 0
    },
    {
      "sampler": 0,
      "source": 1
    },
    {
      "sampler": 0,
      "source": 2
    }
  ]
}
